<mxfile host="Electron" modified="2024-07-03T02:31:30.114Z" agent="Mozilla/5.0 (X11; Linux x86_64) AppleWebKit/537.36 (KHTML, like Gecko) draw.io/24.2.5 Chrome/120.0.6099.109 Electron/28.1.0 Safari/537.36" etag="ZD5QkVI2mvzEMN9ETycJ" version="24.2.5" type="device">
  <diagram name="Page-1" id="LznCcgv3BS2J9Vq8wZ48">
    <mxGraphModel dx="1434" dy="835" grid="1" gridSize="10" guides="1" tooltips="1" connect="1" arrows="1" fold="1" page="1" pageScale="1" pageWidth="850" pageHeight="1100" math="0" shadow="0">
      <root>
        <mxCell id="2uTVPKC6mBXRzxm8aPr7-0" />
        <mxCell id="2uTVPKC6mBXRzxm8aPr7-1" parent="2uTVPKC6mBXRzxm8aPr7-0" />
        <mxCell id="Btw7lg7nnHDqA9ZqbLAq-6" style="edgeStyle=orthogonalEdgeStyle;rounded=1;orthogonalLoop=1;jettySize=auto;html=1;shadow=0;strokeColor=#6c8ebf;strokeWidth=1;fontFamily=Ubuntu;fontSize=14;fontStyle=0;endArrow=block;endFill=1;fillColor=#dae8fc;entryX=0.5;entryY=1;entryDx=0;entryDy=0;exitX=0.5;exitY=1;exitDx=0;exitDy=0;startArrow=block;startFill=1;" parent="2uTVPKC6mBXRzxm8aPr7-1" edge="1">
          <mxGeometry relative="1" as="geometry">
            <mxPoint x="260" y="360" as="targetPoint" />
          </mxGeometry>
        </mxCell>
        <mxCell id="_szoXQRxT4SYV6xH7jGY-22" style="edgeStyle=orthogonalEdgeStyle;rounded=1;orthogonalLoop=1;jettySize=auto;html=1;entryX=0.5;entryY=1;entryDx=0;entryDy=0;shadow=0;strokeColor=#6c8ebf;strokeWidth=1;fontFamily=Ubuntu;fontSize=14;fontStyle=0;endArrow=block;endFill=1;fillColor=#dae8fc;exitX=0.5;exitY=1;exitDx=0;exitDy=0;" parent="2uTVPKC6mBXRzxm8aPr7-1" edge="1">
          <mxGeometry relative="1" as="geometry">
            <mxPoint x="220" y="320" as="targetPoint" />
          </mxGeometry>
        </mxCell>
        <mxCell id="lmUQL4ZhR8FTCJzstj_G-6" style="edgeStyle=orthogonalEdgeStyle;rounded=1;orthogonalLoop=1;jettySize=auto;html=1;entryX=0.5;entryY=1;entryDx=0;entryDy=0;shadow=0;strokeColor=#6c8ebf;strokeWidth=1;fontFamily=Ubuntu;fontSize=14;fontStyle=0;endArrow=block;endFill=1;fillColor=#dae8fc;exitX=0.5;exitY=1;exitDx=0;exitDy=0;" parent="2uTVPKC6mBXRzxm8aPr7-1" edge="1">
          <mxGeometry relative="1" as="geometry">
            <mxPoint x="220" y="480" as="targetPoint" />
          </mxGeometry>
        </mxCell>
        <mxCell id="lmUQL4ZhR8FTCJzstj_G-7" value="1" style="rounded=0;whiteSpace=wrap;html=1;shadow=0;strokeColor=#6c8ebf;strokeWidth=1;fontFamily=Ubuntu;fontSize=16;fontStyle=0;fillColor=#dae8fc;" parent="2uTVPKC6mBXRzxm8aPr7-1" vertex="1">
          <mxGeometry x="200" y="520" width="40" height="40" as="geometry" />
        </mxCell>
        <mxCell id="lmUQL4ZhR8FTCJzstj_G-9" value="4" style="rounded=0;whiteSpace=wrap;html=1;shadow=0;strokeColor=#6c8ebf;strokeWidth=1;fontFamily=Ubuntu;fontSize=16;fontStyle=0;fillColor=#dae8fc;" parent="2uTVPKC6mBXRzxm8aPr7-1" vertex="1">
          <mxGeometry x="240" y="520" width="40" height="40" as="geometry" />
        </mxCell>
        <mxCell id="lmUQL4ZhR8FTCJzstj_G-10" value="9" style="rounded=0;whiteSpace=wrap;html=1;shadow=0;strokeColor=#b85450;strokeWidth=1;fontFamily=Ubuntu;fontSize=16;fontStyle=0;fillColor=#f8cecc;" parent="2uTVPKC6mBXRzxm8aPr7-1" vertex="1">
          <mxGeometry x="280" y="520" width="40" height="40" as="geometry" />
        </mxCell>
        <mxCell id="lmUQL4ZhR8FTCJzstj_G-13" style="edgeStyle=orthogonalEdgeStyle;rounded=1;orthogonalLoop=1;jettySize=auto;html=1;entryX=0.5;entryY=1;entryDx=0;entryDy=0;shadow=0;strokeColor=#6c8ebf;strokeWidth=1;fontFamily=Ubuntu;fontSize=14;fontStyle=0;endArrow=block;endFill=1;fillColor=#dae8fc;exitX=0.5;exitY=1;exitDx=0;exitDy=0;" parent="2uTVPKC6mBXRzxm8aPr7-1" source="lmUQL4ZhR8FTCJzstj_G-11" target="lmUQL4ZhR8FTCJzstj_G-10" edge="1">
          <mxGeometry relative="1" as="geometry" />
        </mxCell>
        <mxCell id="lmUQL4ZhR8FTCJzstj_G-11" value="7" style="rounded=0;whiteSpace=wrap;html=1;shadow=0;strokeColor=#b85450;strokeWidth=1;fontFamily=Ubuntu;fontSize=16;fontStyle=0;fillColor=#f8cecc;" parent="2uTVPKC6mBXRzxm8aPr7-1" vertex="1">
          <mxGeometry x="320" y="520" width="40" height="40" as="geometry" />
        </mxCell>
        <mxCell id="lmUQL4ZhR8FTCJzstj_G-14" value="1" style="rounded=0;whiteSpace=wrap;html=1;shadow=0;strokeColor=#6c8ebf;strokeWidth=1;fontFamily=Ubuntu;fontSize=16;fontStyle=0;fillColor=#dae8fc;" parent="2uTVPKC6mBXRzxm8aPr7-1" vertex="1">
          <mxGeometry x="200" y="600" width="40" height="40" as="geometry" />
        </mxCell>
        <mxCell id="lmUQL4ZhR8FTCJzstj_G-15" value="4" style="rounded=0;whiteSpace=wrap;html=1;shadow=0;strokeColor=#6c8ebf;strokeWidth=1;fontFamily=Ubuntu;fontSize=16;fontStyle=0;fillColor=#dae8fc;" parent="2uTVPKC6mBXRzxm8aPr7-1" vertex="1">
          <mxGeometry x="240" y="600" width="40" height="40" as="geometry" />
        </mxCell>
        <mxCell id="lmUQL4ZhR8FTCJzstj_G-16" value="7" style="rounded=0;whiteSpace=wrap;html=1;shadow=0;strokeColor=#82b366;strokeWidth=1;fontFamily=Ubuntu;fontSize=16;fontStyle=0;fillColor=#d5e8d4;" parent="2uTVPKC6mBXRzxm8aPr7-1" vertex="1">
          <mxGeometry x="280" y="600" width="40" height="40" as="geometry" />
        </mxCell>
        <mxCell id="lmUQL4ZhR8FTCJzstj_G-18" value="9" style="rounded=0;whiteSpace=wrap;html=1;shadow=0;strokeColor=#6c8ebf;strokeWidth=1;fontFamily=Ubuntu;fontSize=16;fontStyle=0;fillColor=#dae8fc;" parent="2uTVPKC6mBXRzxm8aPr7-1" vertex="1">
          <mxGeometry x="320" y="600" width="40" height="40" as="geometry" />
        </mxCell>
        <mxCell id="Zcs76J6BhUmlG3UoeJA--0" value="i = 3" style="text;html=1;align=center;verticalAlign=middle;whiteSpace=wrap;rounded=0;fontFamily=Ubuntu;fontSize=16;fontStyle=0;" vertex="1" parent="2uTVPKC6mBXRzxm8aPr7-1">
          <mxGeometry x="140" y="525" width="60" height="30" as="geometry" />
        </mxCell>
      </root>
    </mxGraphModel>
  </diagram>
</mxfile>
